<svg width="5" height="9" xmlns="http://www.w3.org/2000/svg" xmlns:xlink="http://www.w3.org/1999/xlink" xmlns:svgjs="http://svgjs.com/svgjs" viewBox="0.272 0 4.457 9" fill="#fff"><svg xmlns="http://www.w3.org/2000/svg" width="5" height="9" viewBox="2.015 2 3.962 8"><path paint-order="stroke fill markers" fill-rule="evenodd" d="M2.968 9.847L5.895 6.16c.116-.146.047-.332-.153-.416-.2-.084-.455-.034-.57.112L2.243 9.543c-.115.146-.047.332.153.416.2.084.456.034.571-.112zm-.132-7.69L5.917 5.99c.122.151.05.345-.16.432-.211.087-.48.036-.602-.116L2.074 2.474c-.122-.151-.05-.345.16-.432.211-.087.48-.036.602.116z"/></svg></svg>