<svg width="57" height="17" viewBox="0 0 57 17" fill="none" xmlns="http://www.w3.org/2000/svg">
<path d="M7.964 11.864C7.964 11.3947 7.788 11.0133 7.436 10.72C7.09867 10.4267 6.666 10.1627 6.138 9.928C5.62467 9.67867 5.06 9.42933 4.444 9.18C3.84267 8.916 3.278 8.60067 2.75 8.234C2.23667 7.85267 1.804 7.38333 1.452 6.826C1.11467 6.26867 0.946 5.55733 0.946 4.692C0.946 3.944 1.07067 3.29867 1.32 2.756C1.56933 2.19867 1.92133 1.73667 2.376 1.37C2.84533 1.00333 3.39533 0.731999 4.026 0.556C4.65667 0.379999 5.36067 0.291999 6.138 0.291999C7.03267 0.291999 7.876 0.372666 8.668 0.534C9.46 0.680666 10.1127 0.900666 10.626 1.194L9.68 3.724C9.35733 3.51867 8.87333 3.33533 8.228 3.174C7.58267 2.998 6.886 2.91 6.138 2.91C5.434 2.91 4.89133 3.04933 4.51 3.328C4.14333 3.60667 3.96 3.98067 3.96 4.45C3.96 4.89 4.12867 5.25667 4.466 5.55C4.818 5.84333 5.25067 6.11467 5.764 6.364C6.292 6.61333 6.85667 6.87 7.458 7.134C8.074 7.398 8.63867 7.72067 9.152 8.102C9.68 8.46867 10.1127 8.93067 10.45 9.488C10.802 10.0307 10.978 10.7127 10.978 11.534C10.978 12.3553 10.8387 13.0667 10.56 13.668C10.296 14.2547 9.91467 14.746 9.416 15.142C8.932 15.538 8.338 15.8313 7.634 16.022C6.94467 16.2127 6.182 16.308 5.346 16.308C4.246 16.308 3.278 16.2053 2.442 16C1.606 15.7947 0.99 15.5893 0.594 15.384L1.562 12.81C1.72333 12.898 1.92867 12.9933 2.178 13.096C2.442 13.1987 2.73533 13.294 3.058 13.382C3.38067 13.47 3.718 13.5433 4.07 13.602C4.43667 13.6607 4.81067 13.69 5.192 13.69C6.08667 13.69 6.76867 13.5433 7.238 13.25C7.722 12.942 7.964 12.48 7.964 11.864ZM12.854 5.638C13.4407 5.374 14.1373 5.16867 14.944 5.022C15.7507 4.86067 16.594 4.78 17.474 4.78C18.2367 4.78 18.8747 4.87533 19.388 5.066C19.9013 5.242 20.3047 5.49867 20.598 5.836C20.906 6.17333 21.1187 6.57667 21.236 7.046C21.368 7.51533 21.434 8.04333 21.434 8.63C21.434 9.27533 21.412 9.928 21.368 10.588C21.324 11.2333 21.2947 11.8713 21.28 12.502C21.28 13.1327 21.302 13.7487 21.346 14.35C21.39 14.9367 21.5 15.494 21.676 16.022H19.344L18.882 14.504H18.772C18.4787 14.9587 18.068 15.3547 17.54 15.692C17.0267 16.0147 16.3593 16.176 15.538 16.176C15.0247 16.176 14.5627 16.1027 14.152 15.956C13.7413 15.7947 13.3893 15.5747 13.096 15.296C12.8027 15.0027 12.5753 14.6653 12.414 14.284C12.2527 13.888 12.172 13.448 12.172 12.964C12.172 12.2893 12.3187 11.7247 12.612 11.27C12.92 10.8007 13.3527 10.4267 13.91 10.148C14.482 9.85467 15.1567 9.65667 15.934 9.554C16.726 9.43667 17.606 9.4 18.574 9.444C18.6767 8.62267 18.618 8.036 18.398 7.684C18.178 7.31733 17.6867 7.134 16.924 7.134C16.352 7.134 15.7433 7.19267 15.098 7.31C14.4673 7.42733 13.9467 7.58133 13.536 7.772L12.854 5.638ZM16.484 13.822C17.056 13.822 17.5107 13.6973 17.848 13.448C18.1853 13.184 18.4347 12.9053 18.596 12.612V11.182C18.1413 11.138 17.7013 11.1307 17.276 11.16C16.8653 11.1893 16.4987 11.2553 16.176 11.358C15.8533 11.4607 15.5967 11.6073 15.406 11.798C15.2153 11.9887 15.12 12.2307 15.12 12.524C15.12 12.9347 15.2373 13.2573 15.472 13.492C15.7213 13.712 16.0587 13.822 16.484 13.822ZM26.7821 12.304C26.7821 12.8173 26.8481 13.1913 26.9801 13.426C27.1121 13.6607 27.3247 13.778 27.6181 13.778C27.7941 13.778 27.9627 13.7633 28.1241 13.734C28.3001 13.7047 28.5127 13.6387 28.7621 13.536L29.0701 15.78C28.8354 15.8973 28.4761 16.0147 27.9921 16.132C27.5081 16.2493 27.0094 16.308 26.4961 16.308C25.6601 16.308 25.0221 16.1173 24.5821 15.736C24.1421 15.34 23.9221 14.6947 23.9221 13.8V0.599999H26.7821V12.304ZM39.1009 15.054C38.6609 15.406 38.0595 15.7067 37.2969 15.956C36.5489 16.1907 35.7495 16.308 34.8989 16.308C33.1242 16.308 31.8262 15.7947 31.0049 14.768C30.1835 13.7267 29.7729 12.304 29.7729 10.5C29.7729 8.564 30.2349 7.112 31.1589 6.144C32.0829 5.176 33.3809 4.692 35.0529 4.692C35.6102 4.692 36.1529 4.76533 36.6809 4.912C37.2089 5.05867 37.6782 5.30067 38.0889 5.638C38.4995 5.97533 38.8295 6.43 39.0789 7.002C39.3282 7.574 39.4529 8.28533 39.4529 9.136C39.4529 9.444 39.4309 9.774 39.3869 10.126C39.3575 10.478 39.3062 10.8447 39.2329 11.226H32.6329C32.6769 12.15 32.9115 12.8467 33.3369 13.316C33.7769 13.7853 34.4809 14.02 35.4489 14.02C36.0502 14.02 36.5855 13.932 37.0549 13.756C37.5389 13.5653 37.9055 13.3747 38.1549 13.184L39.1009 15.054ZM35.0089 6.98C34.2609 6.98 33.7035 7.20733 33.3369 7.662C32.9849 8.102 32.7722 8.696 32.6989 9.444H36.7909C36.8495 8.652 36.7249 8.04333 36.4169 7.618C36.1235 7.19267 35.6542 6.98 35.0089 6.98ZM47.7208 16V10.016C47.7208 9.004 47.6254 8.28533 47.4348 7.86C47.2441 7.43467 46.8481 7.222 46.2468 7.222C45.7481 7.222 45.3448 7.36133 45.0368 7.64C44.7288 7.904 44.4941 8.24867 44.3328 8.674V16H41.4728V5H43.6948L44.0248 6.452H44.1128C44.4501 5.98267 44.8754 5.572 45.3888 5.22C45.9168 4.868 46.5914 4.692 47.4128 4.692C48.1168 4.692 48.6888 4.83867 49.1288 5.132C49.5834 5.41067 49.9354 5.88733 50.1848 6.562C50.5221 5.99 50.9548 5.53533 51.4828 5.198C52.0108 4.86067 52.6488 4.692 53.3968 4.692C54.0128 4.692 54.5334 4.76533 54.9588 4.912C55.3988 5.05867 55.7508 5.31533 56.0148 5.682C56.2934 6.034 56.4988 6.51067 56.6308 7.112C56.7628 7.71333 56.8288 8.476 56.8288 9.4V16H53.9688V9.818C53.9688 8.95267 53.8734 8.30733 53.6828 7.882C53.5068 7.442 53.1034 7.222 52.4728 7.222C51.9594 7.222 51.5488 7.36133 51.2408 7.64C50.9474 7.91867 50.7274 8.3 50.5808 8.784V16H47.7208Z" fill="#59606D"/>
</svg>
