<svg height="512" viewBox="0 0 510.228 510.228" width="512" xmlns="http://www.w3.org/2000/svg"><path d="M406.481 62.753c-83.658-83.658-219.067-83.667-302.734 0-83.656 83.655-83.669 219.067 0 302.734L243.8 505.54c6.249 6.249 16.379 6.248 22.627 0l140.054-140.053c83.656-83.655 83.669-219.066 0-302.734zM300.152 259.159c-24.893 24.893-65.182 24.895-90.077 0-39.873-39.873-11.552-108.734 45.039-108.734 56.606 0 84.894 68.879 45.038 108.734z" fill="#e88793"/><path d="M255.114.054C136.809.054 41.048 95.796 41.048 214.12c0 49.69 16.824 96.79 47.765 134.812 50.139 1.679 112.606-8.799 186.221-45.453 83.626-41.639 146.656-56.687 192.089-59.573C485.065 114.243 384.699.054 255.114.054zm45.038 259.105c-24.893 24.893-65.182 24.895-90.077 0-39.873-39.873-11.552-108.734 45.039-108.734 56.606 0 84.894 68.879 45.038 108.734z" fill="#fc93a0"/><path d="M406.481 62.753C287.727-56.001 86.866 3.058 47.368 162.149c33.004 27.879 79.432 49.549 144.429 45.385 3.322-32.224 30.391-57.109 63.317-57.109 22.789 0 42.673 11.867 53.96 29.877 55.931-16.556 104.973-30.412 146.434-41.743-10.59-28.124-27.141-53.92-49.027-75.806z" fill="#fda5b7"/><path d="M406.481 62.753c-83.658-83.658-219.067-83.667-302.734 0-83.656 83.655-83.669 219.067 0 302.734L243.8 505.541c6.249 6.249 16.379 6.248 22.627 0l140.054-140.054c83.656-83.655 83.669-219.066 0-302.734zM383.854 342.86L255.114 471.6l-128.74-128.74c-70.987-70.987-70.987-186.493 0-257.48 70.988-70.986 186.49-70.988 257.48 0 70.987 70.987 70.987 186.493 0 257.48z"/><path d="M255.114 118.426c-52.888 0-95.695 42.798-95.695 95.694 0 52.887 42.8 95.694 95.695 95.694 52.889 0 95.695-42.8 95.695-95.694 0-52.887-42.799-95.694-95.695-95.694zm45.039 140.733c-.613 0-15.694 18.655-45.039 18.655-35.203 0-63.695-28.487-63.695-63.694 0-35.202 28.488-63.694 63.695-63.694 57.185 0 84.671 69.101 45.039 108.733z"/></svg>