<svg width="119" height="7" xmlns="http://www.w3.org/2000/svg" xmlns:xlink="http://www.w3.org/1999/xlink" xmlns:svgjs="http://svgjs.com/svgjs" viewBox="0 0.484 119 6.032" fill="#c45f1c"><svg xmlns="http://www.w3.org/2000/svg" width="119" height="7" viewBox="1.013 1.003 118.184 5.99"><path paint-order="stroke fill markers" fill-rule="evenodd" d="M1.5 6.469l-.487-.807 8.448-4.659.487.806-8.447 4.66zm15.195.525l.478-.825L8.898 1.41l-.478.824 8.275 4.76zm.413-.525l-.488-.807 8.448-4.659.487.806-8.447 4.66zm15.194.525l.478-.825-8.275-4.759-.478.824 8.275 4.76zm.413-.525l-.488-.807 8.447-4.659.488.806-8.447 4.66zm15.194.525l.478-.825-8.275-4.759-.478.824 8.275 4.76zm.413-.525l-.488-.807 8.447-4.659.488.806-8.447 4.66zm15.194.525l.478-.825-8.276-4.759-.477.824 8.275 4.76zm.412-.525l-.487-.807 8.447-4.659.488.806-8.448 4.66zm15.195.525l.477-.825-8.275-4.759-.477.824 8.275 4.76zm.412-.525l-.487-.807 8.447-4.659.488.806-8.448 4.66zm15.195.525l.477-.825-8.275-4.759-.477.824 8.275 4.76zm.412-.525l-.487-.807 8.447-4.659.488.806-8.448 4.66zm15.195.525l.477-.825-8.275-4.759-.478.824 8.276 4.76zm.412-.525l-.488-.807 8.448-4.659.488.806-8.448 4.66zm7.397-5.059l-.478.824.478-.824"/></svg></svg>