<svg width="22" height="23" fill="none" xmlns="http://www.w3.org/2000/svg"><g clip-path="url(#clip0)"><path d="M16.446.005L13.593 0c-3.205 0-5.276 2.173-5.276 5.537V8.09H5.449A.454.454 0 005 8.55v3.698c0 .254.2.46.449.46h2.868v9.333c0 .254.2.459.449.459h3.742a.454.454 0 00.449-.459v-9.334h3.354a.454.454 0 00.448-.459l.002-3.699a.465.465 0 00-.132-.324.444.444 0 00-.317-.135h-3.355V5.926c0-1.04.242-1.568 1.567-1.568h1.922a.454.454 0 00.448-.46V.463c0-.253-.2-.458-.448-.458z" fill="#233AEF"/></g><defs><clipPath id="clip0"><path fill="#fff" d="M0 0h22v22.5H0z"/></clipPath></defs></svg>