<svg width="22" height="23" fill="none" xmlns="http://www.w3.org/2000/svg"><path fill-rule="evenodd" clip-rule="evenodd" d="M18.934 12.691c.73.713 1.5 1.383 2.155 2.167.289.349.563.709.772 1.113.297.575.028 1.208-.488 1.242l-3.205-.001c-.826.068-1.486-.264-2.04-.83-.444-.452-.855-.933-1.282-1.4a3.032 3.032 0 00-.576-.513c-.438-.284-.818-.197-1.068.26-.254.464-.312.978-.337 1.495-.034.755-.263.953-1.02.988-1.62.076-3.158-.169-4.587-.986-1.26-.72-2.236-1.738-3.086-2.89C2.517 11.094 1.25 8.63.112 6.097c-.257-.57-.07-.877.56-.888a86.99 86.99 0 013.138-.001c.425.006.706.25.87.651C5.246 7.25 5.938 8.574 6.807 9.8c.231.327.467.653.803.883.372.255.655.17.83-.243.11-.263.16-.546.184-.827.083-.967.094-1.933-.051-2.897-.09-.602-.429-.991-1.029-1.105-.306-.058-.26-.172-.112-.347.257-.301.5-.49.983-.49h3.622c.57.113.697.37.775.943l.003 4.024c-.006.222.11.881.51 1.028.321.105.532-.151.724-.354.868-.92 1.487-2.009 2.04-3.135.245-.495.456-1.01.66-1.524.152-.38.39-.569.82-.56l3.485.003c.104 0 .208.001.308.018.588.1.749.353.567.927-.285.9-.842 1.65-1.386 2.403-.58.805-1.203 1.582-1.78 2.391-.529.739-.487 1.111.171 1.753z" fill="#233AEF"/></svg>