<svg width="72" height="17" fill="none" xmlns="http://www.w3.org/2000/svg"><path d="M12.254 3.284H7.766V16H4.752V3.284H.242V.6h12.012v2.684zm7.49 11.77c-.44.352-1.042.653-1.805.902a7.967 7.967 0 01-2.398.352c-1.774 0-3.072-.513-3.893-1.54-.822-1.041-1.232-2.464-1.232-4.268 0-1.936.461-3.388 1.386-4.356.924-.968 2.222-1.452 3.893-1.452.558 0 1.1.073 1.628.22a3.79 3.79 0 011.409.726c.41.337.74.792.99 1.364.249.572.373 1.283.373 2.134 0 .308-.021.638-.066.99-.029.352-.08.719-.154 1.1h-6.6c.044.924.28 1.62.704 2.09.44.47 1.145.704 2.113.704.6 0 1.136-.088 1.606-.264.483-.19.85-.381 1.1-.572l.946 1.87zM15.652 6.98c-.748 0-1.306.227-1.672.682-.353.44-.565 1.034-.639 1.782h4.092c.06-.792-.066-1.4-.373-1.826-.294-.425-.763-.638-1.408-.638zm11.017 5.984a.821.821 0 00-.374-.704 4.505 4.505 0 00-.924-.484c-.366-.147-.77-.293-1.21-.44a5.011 5.011 0 01-1.21-.638 3.688 3.688 0 01-.924-1.034c-.249-.425-.374-.968-.374-1.628 0-1.085.323-1.914.968-2.486.646-.572 1.577-.858 2.794-.858.836 0 1.592.088 2.266.264.675.176 1.203.374 1.584.594l-.638 2.068a14.573 14.573 0 00-1.276-.418 5.659 5.659 0 00-1.562-.22c-.85 0-1.276.33-1.276.99 0 .264.125.477.374.638.25.161.558.315.924.462.367.132.77.279 1.21.44.44.161.844.374 1.21.638.367.25.675.58.924.99.25.41.374.939.374 1.584 0 1.115-.359 1.995-1.078 2.64-.704.63-1.767.946-3.19.946a7.67 7.67 0 01-2.2-.308c-.674-.19-1.224-.418-1.65-.682l.792-2.134c.338.19.785.381 1.342.572.558.176 1.13.264 1.716.264.426 0 .763-.08 1.012-.242.264-.161.396-.433.396-.814zM30.253 5h1.518V2.932l2.86-.814V5h2.684v2.42H34.63v4.224c0 .763.073 1.313.22 1.65.16.323.454.484.88.484.293 0 .542-.03.748-.088a5.03 5.03 0 00.726-.264l.506 2.2a7.26 7.26 0 01-1.386.484 6.598 6.598 0 01-1.606.198c-1.012 0-1.76-.257-2.244-.77-.47-.528-.704-1.386-.704-2.574V7.42h-1.518V5zm18.626 11h-9.746V.6h3.014v12.716h6.732V16zm1.73-11h2.86v11h-2.86V5zm-.418-3.102c0-.425.154-.785.462-1.078.323-.308.763-.462 1.32-.462.558 0 1.005.154 1.342.462.352.293.528.653.528 1.078 0 .425-.176.785-.528 1.078-.337.279-.784.418-1.342.418-.557 0-.997-.14-1.32-.418a1.431 1.431 0 01-.462-1.078zM60.83 12.964a.821.821 0 00-.374-.704 4.505 4.505 0 00-.925-.484c-.366-.147-.77-.293-1.21-.44a5.011 5.011 0 01-1.21-.638 3.685 3.685 0 01-.923-1.034c-.25-.425-.375-.968-.375-1.628 0-1.085.323-1.914.968-2.486.646-.572 1.577-.858 2.794-.858.836 0 1.592.088 2.267.264.674.176 1.202.374 1.584.594l-.639 2.068a14.584 14.584 0 00-1.276-.418 5.659 5.659 0 00-1.562-.22c-.85 0-1.276.33-1.276.99 0 .264.125.477.374.638.25.161.558.315.925.462.366.132.77.279 1.21.44.44.161.843.374 1.21.638.366.25.674.58.923.99.25.41.375.939.375 1.584 0 1.115-.36 1.995-1.078 2.64-.705.63-1.768.946-3.19.946a7.67 7.67 0 01-2.2-.308c-.675-.19-1.225-.418-1.65-.682l.791-2.134c.338.19.785.381 1.343.572a5.66 5.66 0 001.715.264c.426 0 .763-.08 1.013-.242.264-.161.396-.433.396-.814zM64.413 5h1.518V2.932l2.86-.814V5h2.684v2.42H68.79v4.224c0 .763.073 1.313.22 1.65.161.323.454.484.88.484.293 0 .542-.03.748-.088a5.03 5.03 0 00.726-.264l.506 2.2a7.26 7.26 0 01-1.386.484 6.597 6.597 0 01-1.606.198c-1.012 0-1.76-.257-2.244-.77-.47-.528-.704-1.386-.704-2.574V7.42h-1.518V5z" fill="#59606D"/></svg>