<svg width="55" height="12" fill="none" xmlns="http://www.w3.org/2000/svg"><path fill-rule="evenodd" clip-rule="evenodd" d="M2.789 0h2.019l-.385 1.652H2.404L2.789 0zM0 11.903h2.02L4.134 2.77H2.163L0 11.903zM18.702 0H6.972l-.434 1.652 4.856-.049-2.403 10.3h2.019l2.404-10.3h4.855L18.702 0zm24.615 0L40.53 11.903h2.019L45.336 0h-2.019zm7.789 2.672h-2.308L44.135 7.53l3.557 4.42H50l-3.51-4.42 4.616-4.858zm3.894 0h-2.356L48.028 7.53l3.51 4.42h2.356l-3.558-4.42L55 2.672zM30.865 4.86c-.48 2.282-.673 2.817-.673 2.817l-1.009 4.227H27.26l-1.346-.049-2.884-.049s-1.394-.388-1.443-1.991c-.048-1.555.962-3.157 1.876-3.548.384-.193 1.394-.242 2.451-.242h.145c1.25 0 2.451.049 2.451.049s.433-1.068.24-1.506c-.095-.147-1.49-.147-2.835-.147-1.299 0-2.549.05-2.596 0l.432-1.65h5.817s1.73-.146 1.298 2.089zm-2.692 2.817h-.192c0 .048-1.106 0-2.068 0-.48 0-.865 0-1.201.048-1.01.098-1.539 2.43-.722 2.528.385.047 1.203.047 1.924.047h1.634l.625-2.623zm5.578-3.984c-1.203.972-1.395 2.43-1.78 3.79-.384 1.408-.576 2.575-.144 3.4.529.972 1.49 1.118 2.211 1.118l4.327-.05.384-1.65-3.365-.048c-.528 0-1.394.047-1.633-.633 0-.145.047-1.117.336-2.185.144-.487.48-1.555.72-1.944.337-.583.866-1.117 1.972-1.117h3.269l.433-1.604-3.798-.049c-1.058 0-2.02.195-2.932.972zM22.163 2.77l-1.538-.049c-.53 0-1.106.05-1.634.244-.096.05-.24.097-.481.244-.29.096-.529.29-.77.484-.529.438-.864.972-1.105 1.554a35.703 35.703 0 00-1.058 3.79L14.904 12h2.02l.384-1.798.528-1.99c.049-.244.096-.488.193-.778.144-.438.433-1.555.673-1.944.336-.583.913-1.07 2.02-1.07h1.105l.336-1.65z" fill="#233AEF"/></svg>