<svg width="299" height="52" fill="none" xmlns="http://www.w3.org/2000/svg"><path d="M4.5 9.5L7 8l14.5 13c5.333-6.167 19-18.5 31-18.5s24 13.333 28.5 20L97 11l1.5 3.5L97 24c1 2.333 2.9 7.5 2.5 9.5-.4 2-1.833 6.167-2.5 8L94.5 43l-8-5.5L81 30c-6.333 6.333-21.5 19-31.5 19s-22.167-11.667-27-17.5l-4-.5-1 1.5L4.5 43 4 41.5V30l-2-8 3.5-6.5-1-6z" fill="#fff"/><path d="M100.094 27.118a20.173 20.173 0 01-1.981-2.81c2.789-4.166 3.675-8.723.165-13.227-.209-.804.365-2.542-1.121-2.343l-1.903.458c-5.214 3.623-8.316 6.502-10.02 8.897a10.454 10.454 0 00-1.58 3.017c3.414-1.15 7.655-3.839 12.26-7.548 1.886 2.335 1.608 5.948-.174 10.53a.542.542 0 00.244.683c2.537 3.208 3.475 5.966 2.242 8.767-1.46 3.233-2.52 7.037-1.686 9.026a.694.694 0 00.704.397c.26-.052.095-.207.139-.224-.105-1.401.964-4.323 2.198-6.19l.391-.52c0-.051.052-.094.087-.12a.437.437 0 00.07-.121c1.772-2.646 1.711-5.594-.035-8.672z" fill="#04259B"/><path d="M80.151 19.882C64.38-5.761 38.391-7.135 22.245 18.887c-.469.51-.912.606-1.381.208a24.94 24.94 0 00-5.614-5.775 29.067 29.067 0 01-6.682-6.476 1.345 1.345 0 00-1.424.584 1.327 1.327 0 00-.192.506 12.265 12.265 0 004.345 4.703c3.102 1.936 6.082 5.334 8.958 9.389.609.795 1.243 1.054 1.851.864a74.384 74.384 0 017.03-9.224 30.651 30.651 0 015.213-4.133l.114.156a16.849 16.849 0 004.066 4.046.547.547 0 01-.06.104 29.674 29.674 0 00-3.32 10.789h-.13c-4.814.692-6.326.285-10.914.666-.556.164-.791.346-.87.527-.555.424.392.865 1.2 1.098 3.258.865 5.292.864 10.001 1.478.205.014.408.043.609.087a27.42 27.42 0 003.875 12.302c.05.105.11.203.183.294-.6.493-1.182 1.038-1.738 1.626a.07.07 0 01.06 0c-.05.044-.097.093-.139.146a41.103 41.103 0 01-9.375-6.916 10.304 10.304 0 01-1.495-1.582C20.855 25.691 14.998 18.153 8.003 12.24L4.076 9.37l-.165.216-.13 4.92c-3.894 5.844-5.875 10.374-.47 17.013-1.468 3.804-1.364 7.582.408 12.502-.19 2.1.34 2.775 1.556 2.17 6.082-3.536 6.447-9.017 12.851-13.167.252-.214.469-.465.643-.744.756-1.003 1.06-2.516 0-2.758-3.301-.752-6.656 1.73-10.383 3.121.07 0 .13 0 .19.07a3.914 3.914 0 01-.347.146c2.199 1.237 4.98-.873 7.412-.579-2.937 2.136-5.995 4.323-7.916 7.184 0 .044-.052.061-.06.096a.277.277 0 01-.087.12c-.305.45-.496.865-.74 1.246a1.338 1.338 0 01-.486.45c-2.328-2.888-1.66-6.744-.478-10.107a3.368 3.368 0 00.209-2.922C3.198 25 2.963 23.902 3.476 22.422a17.317 17.317 0 002.607-2.99 15.014 15.014 0 001.938-3.796 77.969 77.969 0 0112.938 15.881c14.442 23.507 40.38 28.634 60.148.433 3.71 4.703 4.449 5.463 6.951 7.106.218.07.357 0 .166-.233-2.26-3.2-4.44-6.424-6.483-9.752-.547-.925-.669-1.21-1.286-.865-.05.062-.094.128-.13.199a54.865 54.865 0 01-2.355 3.64 36.832 36.832 0 01-12.8 11.42 33.366 33.366 0 00-2.137-2.031.543.543 0 00.07-.095 1.19 1.19 0 00.147-.2 30.152 30.152 0 004.006-12.414h.061c4.197-.744 6.778-.865 8.75-1.193.42-.152.817-.359 1.182-.614a.444.444 0 00-.13-.06l.278-.182c-.53-.156-.722-.441-1.26-.476-1.981-.285-5.657-.345-8.82-.587a30.506 30.506 0 00-2.928-11.706.303.303 0 000-.113 19.19 19.19 0 003.319-2.965c.06-.06.122-.147.183-.216a42.465 42.465 0 0111.183 11.265C84.2 29.78 89.266 37.38 95.027 43.709l.209-4.047c-3.32-1.011-8.829-9.13-15.085-19.78zM36.843 8.029A27.731 27.731 0 0143.63 5.59a18.159 18.159 0 00-3.528 4.78 11.241 11.241 0 01-3.259-2.342zm1.869 35.593c.504-.337.981-.666 1.46-.951a13.945 13.945 0 003.362 2.792 34.664 34.664 0 01-4.822-1.841zm4.622-1.21a11.413 11.413 0 01-.756-1.098 19.591 19.591 0 015.753-1.989h.19l.383 6.156a8.268 8.268 0 01-3.095-.978 8.226 8.226 0 01-2.475-2.091zm5.588-19.072v.493a88.761 88.761 0 00-9.22.216l-.478.052v-.554a31.67 31.67 0 011.617-8.438 21.729 21.729 0 008.098 2.37h.13l-.147 5.86zm9.297-15.45a12.349 12.349 0 012.008 3.459 21.88 21.88 0 01-7.282 1.547l-.122-7.366a9.329 9.329 0 015.396 2.36zm-4.345 22.133c2.903 0 5.762-.07 8.62-.156v.424a25.826 25.826 0 01-2.024 9.173 18.741 18.741 0 00-7.152-3.026l.044-.52.512-5.887v-.008zm9.316 14.386a28.488 28.488 0 01-6.222 1.867 11.928 11.928 0 004.649-3.052 9.402 9.402 0 011.573 1.185zm-.8-34.245c-.704-1.176-1.52-2.325-2.355-3.458a31.91 31.91 0 014.345 1.885 12.347 12.347 0 01-1.99 1.573z" fill="#04259B"/><path d="M58.882 41.789a13.789 13.789 0 00-5.874-2.24l-.539 5.914a.62.62 0 00.478.07h.156c.313-.053.617-.087.87-.165.12-.028.24-.066.355-.113a3.71 3.71 0 00.444-.13 7.986 7.986 0 004.11-3.336z" fill="#8FBDE6"/><path d="M44.188 8.27a27.004 27.004 0 00-2.016 3.26 28.32 28.32 0 007.543 1.52v-.406l.313-7.132a8.717 8.717 0 00-5.032 1.798 2.93 2.93 0 00-.512.528 1.738 1.738 0 01-.296.432zm-5.352 20.991c-.05 3.48.78 6.917 2.415 9.994a23.404 23.404 0 016.717-2.784l.321-6.45a226.05 226.05 0 01-9.453-.76z" fill="#EF4135"/><path d="M53.312 17.755h-.408l.165 6.259a.104.104 0 00.095.052c3.276.406 6.413.864 9.559 1.106l.043-.372a21.27 21.27 0 00-.426-5.87c-.208-1.089-.495-2.152-.808-3.224a28.917 28.917 0 01-8.22 2.049z" fill="#8FBDE6"/><path d="M117.639 28.764h2.482l-2.197 3.672 2.197 3.664h-2.482l-2.523-3.664 2.523-3.672zm-4.109 0h2.475l-2.197 3.672 2.197 3.664h-2.475L111 32.436l2.53-3.672zm16.481 3.148l3.149.952c-.211.883-.544 1.62-.999 2.213a4.337 4.337 0 01-1.697 1.34c-.672.302-1.529.452-2.57.452-1.264 0-2.298-.182-3.101-.547-.799-.37-1.489-1.018-2.07-1.943-.582-.925-.873-2.11-.873-3.553 0-1.925.51-3.403 1.531-4.434 1.026-1.036 2.474-1.555 4.346-1.555 1.465 0 2.615.297 3.45.889.841.592 1.465 1.501 1.872 2.728l-3.172.706c-.111-.354-.228-.613-.349-.777a2.066 2.066 0 00-.738-.635 2.12 2.12 0 00-.976-.222c-.814 0-1.438.328-1.871.984-.328.486-.492 1.25-.492 2.292 0 1.29.196 2.176.587 2.657.391.476.941.714 1.65.714.687 0 1.205-.193 1.554-.58.354-.385.611-.946.769-1.68zm15.586 4.751h-3.593v-8.772h-2.808v3.577c0 1.47-.079 2.551-.238 3.244-.153.687-.518 1.192-1.095 1.515-.571.322-1.496.484-2.776.484-.391 0-.84-.043-1.348-.127v-2.356h.539c.487 0 .831-.106 1.032-.317.2-.217.301-.61.301-1.182v-7.693h9.986v11.627zm9.541-1.919h-4.093l-.563 1.92h-3.672l4.37-11.628h3.918l4.37 11.627h-3.759l-.571-1.92zm-.754-2.514l-1.284-4.18-1.277 4.18h2.561zm18.441 6.963h-2.895v-2.53h-7.424v2.53h-2.887v-5.21h1.198c.671-1.878 1.007-3.995 1.007-6.354v-2.593h9.748v8.946h1.253v5.211zm-4.846-5.21V27.89h-2.887v.15c0 1.608-.273 3.588-.817 5.941h3.704zm16.83 2.68h-4.045l-1.396-3.006c-.333-.708-.592-1.15-.777-1.324-.185-.18-.442-.27-.769-.27v4.6h-3.585V25.036h3.585V29.5c.312-.016.555-.127.729-.333.175-.206.447-.798.817-1.777.27-.724.542-1.242.817-1.554.275-.317.722-.545 1.34-.682.619-.138 1.589-.207 2.911-.207v2.46h-.182c-.613 0-1.068.115-1.364.348-.296.233-.54.61-.73 1.134-.19.519-.397.907-.619 1.166-.216.254-.515.458-.896.611.518.17.97.463 1.356.88.386.413.796 1.058 1.23 1.936l1.578 3.18zm8.447-1.919h-4.093l-.563 1.92h-3.672l4.37-11.628h3.918l4.37 11.627h-3.759l-.571-1.92zm-.754-2.514l-1.284-4.18-1.277 4.18h2.561z" fill="#04259B"/><path d="M209.023 36.663V25.036h-5.988c-1.11 0-1.959.095-2.546.285a2.7 2.7 0 00-1.419 1.063c-.36.513-.54 1.14-.54 1.88 0 .645.138 1.203.413 1.673.275.466.653.844 1.134 1.134.307.186.727.339 1.261.46-.428.143-.74.286-.936.429-.132.095-.325.299-.579.61-.248.313-.415.553-.5.722l-1.737 3.371h4.061l1.92-3.553c.243-.46.46-.759.65-.896.259-.18.553-.27.88-.27h.318v4.72h3.608zm-3.608-6.916H203.9c-.164 0-.481-.053-.952-.159a.965.965 0 01-.587-.364 1.087 1.087 0 01-.222-.675c0-.375.119-.663.357-.864.238-.201.685-.302 1.34-.302h1.579v2.364zm19.17 2.165l3.148.952c-.211.883-.544 1.62-.999 2.213a4.33 4.33 0 01-1.697 1.34c-.672.302-1.528.452-2.57.452-1.264 0-2.297-.182-3.101-.547-.799-.37-1.489-1.018-2.07-1.943-.582-.925-.873-2.11-.873-3.553 0-1.925.511-3.403 1.531-4.434 1.026-1.036 2.475-1.555 4.346-1.555 1.465 0 2.615.297 3.451.889.84.592 1.464 1.501 1.871 2.728l-3.172.706c-.111-.354-.227-.613-.349-.777a2.066 2.066 0 00-.738-.635 2.118 2.118 0 00-.975-.222c-.815 0-1.438.328-1.872.984-.328.486-.492 1.25-.492 2.292 0 1.29.196 2.176.587 2.657.391.476.941.714 1.65.714.687 0 1.205-.193 1.554-.58.355-.385.611-.946.77-1.68zm15.474 4.751h-4.045l-1.396-3.006c-.333-.708-.592-1.15-.777-1.324-.185-.18-.442-.27-.77-.27v4.6h-3.585V25.036h3.585V29.5c.312-.016.555-.127.73-.333.174-.206.447-.798.817-1.777.27-.724.542-1.242.817-1.554.275-.317.722-.545 1.34-.682.619-.138 1.589-.207 2.911-.207v2.46h-.182c-.614 0-1.069.115-1.365.348-.296.233-.539.61-.729 1.134-.191.519-.397.907-.619 1.166-.217.254-.515.458-.896.611.518.17.97.463 1.356.88.386.413.796 1.058 1.229 1.936l1.579 3.18zm8.447-1.919h-4.093l-.563 1.92h-3.672l4.37-11.628h3.918l4.37 11.627h-3.759l-.571-1.92zm-.754-2.514l-1.285-4.18-1.277 4.18h2.562zm13.531-1.888c1.396.375 2.094 1.253 2.094 2.633 0 1.137-.439 2.07-1.317 2.8-.872.724-2.107 1.086-3.704 1.086-2.728 0-4.423-1.144-5.084-3.434l3.395-.254c.19.81.732 1.214 1.626 1.214.497 0 .872-.124 1.126-.373.259-.248.389-.595.389-1.039 0-.428-.161-.775-.484-1.039-.323-.27-.764-.404-1.325-.404h-.975v-2.079h.769c.46 0 .82-.119 1.079-.356.264-.244.396-.58.396-1.008 0-.629-.393-.944-1.181-.944-.815 0-1.288.363-1.42 1.087l-3.212-.373c.523-2.014 2.088-3.022 4.695-3.022 1.444 0 2.575.28 3.395.841.819.56 1.229 1.314 1.229 2.26 0 1.143-.497 1.944-1.491 2.404zm14.467 6.321h-4.045l-1.396-3.006c-.333-.708-.592-1.15-.777-1.324-.185-.18-.442-.27-.77-.27v4.6h-3.585V25.036h3.585V29.5c.312-.016.555-.127.73-.333.174-.206.447-.798.817-1.777.27-.724.542-1.242.817-1.554.275-.317.722-.545 1.34-.682.619-.138 1.589-.207 2.911-.207v2.46h-.182c-.614 0-1.068.115-1.365.348-.296.233-.539.61-.729 1.134-.191.519-.397.907-.619 1.166-.217.254-.515.458-.896.611.518.17.97.463 1.356.88.386.413.796 1.058 1.229 1.936l1.579 3.18zm8.447-1.919h-4.093l-.563 1.92h-3.672l4.37-11.628h3.918l4.37 11.627h-3.759l-.571-1.92zm-.754-2.514l-1.285-4.18-1.277 4.18h2.562zm8.495-3.466h-2.483l2.197 3.672-2.197 3.664h2.483l2.522-3.664-2.522-3.672zm4.108 0h-2.474l2.197 3.672-2.197 3.664h2.474l2.53-3.664-2.53-3.672zM164.497 14.051h3.412v1.08h-2.075v3.974h-1.337V14.05zm4.078 0h1.247v.742a1.868 1.868 0 011.575-.856c.587 0 1.085.23 1.494.69.41.46.614 1.1.614 1.922 0 .844-.206 1.501-.618 1.97-.413.467-.912.7-1.499.7a1.72 1.72 0 01-.762-.167c-.225-.11-.463-.3-.714-.57v2.546h-1.337V14.05zm1.323 2.441c0 .568.113.989.338 1.261.225.27.5.405.823.405a.97.97 0 00.776-.371c.206-.25.309-.66.309-1.228 0-.53-.106-.923-.319-1.18a.984.984 0 00-.79-.386c-.326 0-.598.127-.813.381-.216.25-.324.623-.324 1.118zm3.907-2.441h1.423l1.209 3.588 1.18-3.588h1.385l-1.785 4.864-.319.88c-.117.295-.23.52-.338.676-.104.155-.226.28-.366.376a1.533 1.533 0 01-.509.228c-.2.054-.427.08-.681.08a3.53 3.53 0 01-.756-.08l-.119-1.047c.209.041.398.062.566.062.311 0 .541-.092.69-.276.149-.18.263-.413.343-.695l-1.923-5.068zm6.006 0h4.487v5.054h-1.337V15.13h-1.813v3.974h-1.337V14.05zm5.891 0h4.488v5.054h-1.338V15.13h-1.813v3.974h-1.337V14.05zm6.943 1.542l-1.213-.219c.136-.489.371-.85.704-1.085.333-.235.828-.352 1.485-.352.596 0 1.04.071 1.332.214.292.14.497.319.614.538.121.216.181.614.181 1.194l-.014 1.561c0 .444.02.773.062.985.044.21.125.435.242.676h-1.323a5.01 5.01 0 01-.128-.395 1.966 1.966 0 00-.048-.157 2.395 2.395 0 01-.733.5c-.26.11-.537.166-.832.166-.521 0-.932-.141-1.233-.423a1.412 1.412 0 01-.447-1.071c0-.286.068-.54.204-.762a1.33 1.33 0 01.571-.514c.248-.12.603-.225 1.066-.314.625-.117 1.058-.226 1.3-.328v-.133c0-.257-.064-.44-.191-.547-.127-.112-.366-.167-.718-.167-.238 0-.424.048-.557.143-.133.092-.241.255-.324.49zm1.79 1.085a8.435 8.435 0 01-.814.204c-.371.08-.614.158-.728.234-.175.123-.262.28-.262.47 0 .188.07.35.209.486a.73.73 0 00.533.205c.241 0 .471-.08.69-.238a.838.838 0 00.319-.443c.035-.114.053-.331.053-.652v-.266zm5.296-2.627h1.333v2.065c.222-.025.379-.093.471-.204.092-.111.203-.354.333-.728.171-.498.358-.817.561-.957.203-.14.47-.21.8-.21.101 0 .277.009.528.024l.005.886c-.352 0-.578.033-.676.1-.098.07-.205.277-.319.623-.155.466-.379.754-.671.861.422.118.779.484 1.071 1.1l.052.1.747 1.394h-1.437l-.666-1.461c-.136-.295-.255-.484-.357-.566-.098-.086-.246-.129-.442-.129v2.156h-1.333V14.05zm4.492 2.456c0-.445.11-.874.329-1.29.219-.416.528-.733.928-.952a2.775 2.775 0 011.346-.328c.765 0 1.392.249 1.88.747.489.495.733 1.122.733 1.88 0 .764-.247 1.399-.742 1.903-.492.502-1.112.752-1.861.752-.463 0-.906-.105-1.328-.314a2.159 2.159 0 01-.956-.918c-.219-.406-.329-.9-.329-1.48zm1.371.071c0 .501.119.885.357 1.152.238.266.531.4.88.4s.641-.134.876-.4c.238-.267.357-.654.357-1.162 0-.495-.119-.875-.357-1.142a1.12 1.12 0 00-.876-.4c-.349 0-.642.134-.88.4-.238.267-.357.65-.357 1.152zm4.802-2.527h1.656l1.256 3.522 1.266-3.522h1.651v5.054h-1.137v-3.327l-1.233 3.327h-1.142l-1.175-3.327v3.327h-1.142V14.05zm7.123 0h4.488v5.054h-1.337V15.13h-1.813v3.974h-1.338V14.05zm6.944 1.542l-1.214-.219c.137-.489.371-.85.704-1.085.334-.235.828-.352 1.485-.352.597 0 1.041.071 1.333.214.291.14.496.319.613.538.121.216.181.614.181 1.194l-.014 1.561c0 .444.021.773.062.985.044.21.125.435.243.676h-1.323a4.93 4.93 0 01-.129-.395 2.79 2.79 0 00-.047-.157 2.419 2.419 0 01-.733.5c-.26.11-.538.166-.833.166-.52 0-.931-.141-1.233-.423a1.412 1.412 0 01-.447-1.071c0-.286.068-.54.205-.762.136-.225.326-.396.571-.514.247-.12.603-.225 1.066-.314.625-.117 1.058-.226 1.299-.328v-.133c0-.257-.064-.44-.19-.547-.127-.112-.367-.167-.719-.167-.238 0-.424.048-.557.143-.133.092-.241.255-.323.49zm1.789 1.085a8.357 8.357 0 01-.814.204c-.371.08-.614.158-.728.234-.174.123-.262.28-.262.47 0 .188.07.35.21.486a.73.73 0 00.533.205c.241 0 .471-.08.69-.238a.838.838 0 00.319-.443c.034-.114.052-.331.052-.652v-.266zm2.584-2.627h1.337v1.851h1.913v-1.851h1.342v5.054h-1.342v-2.122h-1.913v2.122h-1.337V14.05zm5.91 0h1.285v3.174l2.056-3.174h1.313v5.054h-1.284v-3.231l-2.085 3.23h-1.285v-5.053zm5.996 0h1.285v3.174l2.056-3.174h1.314v5.054h-1.285v-3.231l-2.085 3.23h-1.285v-5.053zM243.945 12h.652c-.038.431-.19.77-.457 1.018-.263.245-.606.367-1.028.367-.422 0-.766-.122-1.032-.367-.264-.247-.414-.587-.452-1.018h.652c.022.225.101.397.237.514.137.114.335.171.595.171.26 0 .459-.057.595-.171.137-.117.216-.289.238-.514z" fill="#04259B"/></svg>