<svg xmlns="http://www.w3.org/2000/svg" width="143" height="53"><path fill="#68b0c9" d="M135.645 1.613a4.08 4.08 0 015.743-.753 4.134 4.134 0 01.765 5.773 4.073 4.073 0 01-3.52 1.598l.008.007-6.92 8.179-2.35-2.073 6.402-7.567a4.135 4.135 0 01-.128-5.164zm1.871 4.323c.998.77 2.427.583 3.19-.418a2.297 2.297 0 00-.424-3.208 2.267 2.267 0 00-3.191.419 2.297 2.297 0 00.425 3.207zM.833 27.78a4.08 4.08 0 015.743-.753 4.138 4.138 0 011.41 4.542l5.97 4.605-1.66 2.176-5.97-4.605a4.083 4.083 0 01-4.728-.192 4.134 4.134 0 01-.765-5.773zm1.872 4.323c.998.77 2.426.582 3.19-.419a2.296 2.296 0 00-.425-3.207 2.267 2.267 0 00-3.19.419 2.297 2.297 0 00.425 3.207zm12.831 8.66l1.158-2.482 7.42 3.511-1.157 2.482zm10.337 4.518l1.158-2.483 7.42 3.512-1.158 2.482zm10.883 4.738l.594-2.677 7.997 1.814-.594 2.677zm11.927 1.649l.222-2.735 8.167.692-.223 2.735zm13.236 1.337l-.07-2.744 8.191-.188.07 2.744zm12.975-1.18l-.407-2.715 8.102-1.206.407 2.715zm12.443-2.654l-1.035-2.542 7.582-3.1 1.035 2.542zm11.495-4.842l-1.444-2.333 6.953-4.336 1.445 2.333zm13.795-7.832l-1.818-2.053 6.114-5.464 1.818 2.053zm10.083-9.584l-1.992-1.884 5.608-5.988 1.991 1.884z"/></svg>