<svg xmlns="http://www.w3.org/2000/svg" width="84" height="34"><path fill="#5ea5bd" d="M6.237 1.212c.443.439.743.967.901 1.527l6.772 2.85-.776 1.843L7.065 4.88a3.5 3.5 0 11-.828-3.667zm-3.53 1.426a1.5 1.5 0 102.127 2.114 1.5 1.5 0 00-2.128-2.114zm79.989 25.184a3.5 3.5 0 11-5.808 1.437l-5.693-2.395.776-1.844 6.069 2.554a3.5 3.5 0 014.656.248zm-3.531 1.426a1.5 1.5 0 102.129 2.114 1.5 1.5 0 00-2.13-2.114zM16.749 5.409l7.07 2.975-.776 1.843-7.07-2.975zm10.62 3.5l7.069 2.974-.776 1.844-7.07-2.975zm10.618 3.499l7.07 2.975-.776 1.843-7.07-2.975zm11.328 4.204l7.07 2.975-.776 1.843-7.07-2.974zm11.328 4.204l7.07 2.975-.776 1.843-7.07-2.975z"/></svg>