<svg xmlns="http://www.w3.org/2000/svg" width="85" height="34"><path fill="#939393" d="M83.392 1.433a3.485 3.485 0 01-.016 4.947 3.53 3.53 0 01-4.973-.017 3.483 3.483 0 01-.816-1.282L71.49 7.634l-.78-1.843 6.804-2.848c.16-.56.461-1.088.906-1.527a3.53 3.53 0 014.972.017zm-3.557 1.401a1.494 1.494 0 00-.007 2.12 1.513 1.513 0 002.132.008c.59-.584.593-1.533.007-2.12a1.513 1.513 0 00-2.132-.008zM6.558 32.976a3.53 3.53 0 01-4.973-.017 3.485 3.485 0 01.017-4.947 3.531 3.531 0 014.678-.247l6.097-2.553.78 1.843-5.72 2.394a3.485 3.485 0 01-.879 3.527zm-3.54-3.545a1.494 1.494 0 00-.007 2.12c.587.587 1.54.59 2.131.007.59-.584.594-1.533.008-2.12a1.513 1.513 0 00-2.132-.007zm65.62-21.977l-7.104 2.973-.779-1.842 7.103-2.974zm-10.67 3.497l-7.102 2.974-.78-1.843L57.19 9.11zM47.3 14.45l-7.102 2.973-.78-1.842 7.103-2.973zm-11.38 4.202l-7.104 2.973-.779-1.842 7.103-2.973zm-11.382 4.202l-7.103 2.973-.78-1.842 7.104-2.974z"/></svg>