<svg xmlns="http://www.w3.org/2000/svg" width="86" height="28"><path fill="#5ea5bd" d="M4.568 21.156a3.48 3.48 0 011.606.753l7.198-1.471.4 1.96-6.45 1.318a3.5 3.5 0 11-2.754-2.56zm-2.11 3.17a1.5 1.5 0 102.95.544 1.5 1.5 0 00-2.95-.544zM82.7-.04a3.5 3.5 0 11-3.982 4.465l-6.051 1.237-.4-1.96 6.45-1.318A3.5 3.5 0 0182.7-.04zm-2.109 3.17a1.5 1.5 0 102.95.544 1.5 1.5 0 00-2.95-.543zM15.614 18.687l7.515-1.535.4 1.96-7.514 1.535zm10.74-3.105l7.515-1.536.4 1.96-7.514 1.535zm10.741-3.106l7.515-1.535.4 1.96-7.515 1.534zm11.724-2.924l7.514-1.536.4 1.96-7.514 1.535zm11.724-2.925l7.514-1.536.4 1.96-7.514 1.535z"/></svg>