<svg xmlns="http://www.w3.org/2000/svg" width="87" height="29"><path fill="#939393" d="M86.192 24.213a3.5 3.5 0 01-2.821 4.074 3.515 3.515 0 01-4.095-2.807 3.467 3.467 0 01.054-1.516l-6.481-1.317.402-1.959 7.232 1.47c.449-.373.998-.64 1.614-.752a3.515 3.515 0 014.095 2.807zm-3.731-.841a1.5 1.5 0 00-1.21 1.746 1.508 1.508 0 001.756 1.203 1.5 1.5 0 001.209-1.746 1.507 1.507 0 00-1.755-1.203zM4.87 7.102A3.515 3.515 0 01.777 4.294 3.5 3.5 0 013.598.22a3.518 3.518 0 014.001 2.422l6.482 1.318-.403 1.958-6.08-1.236A3.51 3.51 0 014.872 7.1zm-.91-4.916a1.5 1.5 0 00-1.208 1.746c.15.815.936 1.353 1.755 1.203a1.5 1.5 0 001.21-1.745 1.507 1.507 0 00-1.755-1.204zm66.635 18.71l-7.55-1.534.402-1.959 7.55 1.535zm-10.79-3.104l-7.55-1.534.402-1.959 7.55 1.535zm-10.791-3.104l-7.55-1.534.402-1.959 7.55 1.535zm-11.78-2.923l-7.55-1.534.403-1.959 7.55 1.535zM25.458 8.842l-7.55-1.534.402-1.96 7.55 1.536z"/></svg>