<svg xmlns="http://www.w3.org/2000/svg" width="88" height="22"><path fill="#5ea5bd" d="M6.276.745c.503.369.88.846 1.12 1.376l7.122 1.803-.49 1.94-6.384-1.617A3.5 3.5 0 116.276.745zm-3.277 1.94a1.5 1.5 0 102.421 1.77A1.5 1.5 0 003 2.686zm82.858 12.92a3.5 3.5 0 11-5.526 2.291l-5.988-1.516.49-1.939 6.384 1.616a3.5 3.5 0 014.64-.452zm-3.277 1.939a1.5 1.5 0 102.421 1.771 1.5 1.5 0 00-2.42-1.771zM17.298 3.32l7.436 1.883-.491 1.939-7.436-1.883zm11.023 1.87l7.436 1.882-.491 1.94L27.83 7.13zm11.023 1.87l7.436 1.882-.491 1.94L38.853 9zm11.83 2.46l7.436 1.882-.491 1.94-7.436-1.883zm11.83 2.46l7.435 1.883-.49 1.938-7.436-1.882z"/></svg>