<svg xmlns="http://www.w3.org/2000/svg" width="87" height="23"><path fill="#939393" d="M86.3 1.732a3.486 3.486 0 01-.762 4.888 3.528 3.528 0 01-4.914-.757 3.475 3.475 0 01-.613-1.39L73.598 6.09l-.493-1.938L80.26 2.35c.241-.53.62-1.007 1.125-1.375a3.528 3.528 0 014.914.758zm-3.728.855a1.494 1.494 0 00-.327 2.095 1.512 1.512 0 002.106.325 1.494 1.494 0 00.327-2.095 1.512 1.512 0 00-2.106-.325zM5.583 21.472a3.528 3.528 0 01-4.914-.758 3.486 3.486 0 01.761-4.888 3.53 3.53 0 014.663.452l6.413-1.615.493 1.937-6.016 1.516a3.49 3.49 0 01-1.4 3.356zm-2.966-4.033a1.494 1.494 0 00-.326 2.095 1.512 1.512 0 002.106.325 1.494 1.494 0 00.326-2.095 1.512 1.512 0 00-2.106-.325zM70.804 5.486l-7.47 1.882-.493-1.938 7.47-1.882zM59.73 7.356l-7.47 1.88-.494-1.937 7.47-1.882zM48.655 9.223l-7.47 1.881-.493-1.937 7.47-1.882zm-11.885 2.46l-7.47 1.881-.494-1.938 7.47-1.881zm-11.886 2.459l-7.47 1.881-.493-1.938 7.47-1.881z"/></svg>