<svg xmlns="http://www.w3.org/2000/svg" width="148" height="78"><path fill="#68b0c9" d="M8.486 74.652a4.5 4.5 0 11-4.678-6.41l-.01-.006L9.427 57.92l2.985 1.69-5.207 9.542a4.502 4.502 0 011.281 5.499zm-2.969-4.206a2.5 2.5 0 10-2.17 4.505 2.5 2.5 0 002.17-4.505zm142.105-54.192a4.5 4.5 0 01-8.529-2.444l-7.437-3.583 1.302-2.703 7.438 3.584a4.502 4.502 0 017.226 5.146zm-2.97-4.205a2.5 2.5 0 10-2.17 4.505 2.5 2.5 0 002.17-4.505zM128.94 5.67l-.695 2.919-8.755-2.087.695-2.918zm-12.113-2.506l-.695 2.919-8.755-2.086.695-2.919zM104.077.546l-.045 3-9-.139.047-3zM90.89 1.47l.367 2.977-8.933 1.1-.367-2.977zM76.365 3.023l.682 2.921-8.764 2.048-.682-2.922zM62.677 7.21l1.039 2.815-8.443 3.116-1.04-2.814zm-12.79 5.645l1.676 2.488-7.464 5.029-1.676-2.489zM38.602 20.63l2.07 2.171-6.516 6.21-2.07-2.173zM25.507 32.122l2.409 1.788-5.364 7.227-2.409-1.787zm-8.718 12.533l2.558 1.567-4.702 7.674-2.558-1.568z"/></svg>