<svg width="32" height="32" fill="none" xmlns="http://www.w3.org/2000/svg"><path fill-rule="evenodd" clip-rule="evenodd" d="M7.84 3.48A1.2 1.2 0 018.8 3h14.4a1.2 1.2 0 01.96.48l3.6 4.8c.156.208.24.46.24.72v16.8a3.6 3.6 0 01-3.6 3.6H7.6A3.6 3.6 0 014 25.8V9c0-.26.084-.512.24-.72l3.6-4.8zM9.4 5.4l-3 4v16.4A1.2 1.2 0 007.6 27h16.8a1.2 1.2 0 001.2-1.2V9.4l-3-4H9.4z" fill="#1F1F1F"/><path fill-rule="evenodd" clip-rule="evenodd" d="M4 9a1.2 1.2 0 011.2-1.2h21.6a1.2 1.2 0 010 2.4H5.2A1.2 1.2 0 014 9zm7.2 3.6a1.2 1.2 0 011.2 1.2 3.6 3.6 0 107.2 0 1.2 1.2 0 012.4 0 6 6 0 11-12 0 1.2 1.2 0 011.2-1.2z" fill="#1F1F1F"/></svg>