<svg width="32" height="32" fill="none" xmlns="http://www.w3.org/2000/svg"><path fill-rule="evenodd" clip-rule="evenodd" d="M6 10a1 1 0 011-1h18a1 1 0 110 2H7a1 1 0 01-1-1z" fill="#1F1F1F"/><path fill-rule="evenodd" clip-rule="evenodd" d="M14 7a1 1 0 00-1 1v1h6V8a1 1 0 00-1-1h-4zm7 2V8a3 3 0 00-3-3h-4a3 3 0 00-3 3v1H9a1 1 0 00-1 1v14a3 3 0 003 3h10a3 3 0 003-3V10a1 1 0 00-1-1h-2zm-11 2v13a1 1 0 001 1h10a1 1 0 001-1V11H10z" fill="#1F1F1F"/><path fill-rule="evenodd" clip-rule="evenodd" d="M14 14a1 1 0 011 1v6a1 1 0 11-2 0v-6a1 1 0 011-1zm4 0a1 1 0 011 1v6a1 1 0 11-2 0v-6a1 1 0 011-1z" fill="#1F1F1F"/></svg>